<?xml version="1.0" encoding="UTF-8" standalone="no"?>
<!DOCTYPE svg PUBLIC "-//W3C//DTD SVG 1.1//EN"
 "http://www.w3.org/Graphics/SVG/1.1/DTD/svg11.dtd">
<!-- Generated by graphviz version 14.0.2 (20251019.1705)
 -->
<!-- Title: edge_microservices Pages: 1 -->
<svg width="651pt" height="665pt"
 viewBox="0.00 0.00 651.00 665.00" xmlns="http://www.w3.org/2000/svg" xmlns:xlink="http://www.w3.org/1999/xlink">
<g id="graph0" class="graph" transform="scale(1 1) rotate(0) translate(14.4 650.9)">
<title>edge_microservices</title>
<polygon fill="white" stroke="none" points="-14.4,14.4 -14.4,-650.9 636.4,-650.9 636.4,14.4 -14.4,14.4"/>
<g id="clust1" class="cluster">
<title>cluster_aws</title>
<polygon fill="none" stroke="#888888" points="370,-149 370,-221 614,-221 614,-149 370,-149"/>
<text xml:space="preserve" text-anchor="middle" x="492" y="-207.5" font-family="Arial" font-size="10.00">AWS Cloud (Optional)</text>
</g>
<g id="clust2" class="cluster">
<title>cluster_edge</title>
<polygon fill="none" stroke="#888888" points="8,-8 8,-628.5 362,-628.5 362,-8 8,-8"/>
<text xml:space="preserve" text-anchor="middle" x="185" y="-615" font-family="Arial" font-size="10.00">Raspberry Pi 4 — Edge Node</text>
</g>
<!-- aws_iot -->
<g id="node1" class="node">
<title>aws_iot</title>
<path fill="white" stroke="#555555" d="M593.5,-193C593.5,-193 526.5,-193 526.5,-193 520.5,-193 514.5,-187 514.5,-181 514.5,-181 514.5,-169 514.5,-169 514.5,-163 520.5,-157 526.5,-157 526.5,-157 593.5,-157 593.5,-157 599.5,-157 605.5,-163 605.5,-169 605.5,-169 605.5,-181 605.5,-181 605.5,-187 599.5,-193 593.5,-193"/>
<text xml:space="preserve" text-anchor="middle" x="560" y="-171.5" font-family="Arial" font-size="10.00">IoT Core (MQTT)</text>
</g>
<!-- aws_ddb -->
<g id="node2" class="node">
<title>aws_ddb</title>
<path fill="white" stroke="#555555" d="M484.38,-193C484.38,-193 389.62,-193 389.62,-193 383.62,-193 377.62,-187 377.62,-181 377.62,-181 377.62,-169 377.62,-169 377.62,-163 383.62,-157 389.62,-157 389.62,-157 484.38,-157 484.38,-157 490.38,-157 496.38,-163 496.38,-169 496.38,-169 496.38,-181 496.38,-181 496.38,-187 490.38,-193 484.38,-193"/>
<text xml:space="preserve" text-anchor="middle" x="437" y="-177.5" font-family="Arial" font-size="10.00">DynamoDB (Telemetry)</text>
<text xml:space="preserve" text-anchor="middle" x="437" y="-165.5" font-family="Arial" font-size="10.00">7&#45;day storage</text>
</g>
<!-- sensors -->
<g id="node3" class="node">
<title>sensors</title>
<path fill="white" stroke="#555555" d="M151.25,-507.5C151.25,-507.5 64.75,-507.5 64.75,-507.5 58.75,-507.5 52.75,-501.5 52.75,-495.5 52.75,-495.5 52.75,-463.5 52.75,-463.5 52.75,-457.5 58.75,-451.5 64.75,-451.5 64.75,-451.5 151.25,-451.5 151.25,-451.5 157.25,-451.5 163.25,-457.5 163.25,-463.5 163.25,-463.5 163.25,-495.5 163.25,-495.5 163.25,-501.5 157.25,-507.5 151.25,-507.5"/>
<text xml:space="preserve" text-anchor="middle" x="108" y="-494" font-family="Arial" font-size="10.00">Sensors (I²C/I²S)</text>
<text xml:space="preserve" text-anchor="middle" x="108" y="-482" font-family="Arial" font-size="10.00">• BME280 Temp/Hum</text>
<text xml:space="preserve" text-anchor="middle" x="108" y="-470" font-family="Arial" font-size="10.00">• LIS3DH Vibration</text>
<text xml:space="preserve" text-anchor="middle" x="108" y="-458" font-family="Arial" font-size="10.00">• INMP441 Mic</text>
</g>
<!-- mosquitto -->
<g id="node7" class="node">
<title>mosquitto</title>
<path fill="white" stroke="#555555" d="M269.38,-394.5C269.38,-394.5 186.62,-394.5 186.62,-394.5 180.62,-394.5 174.62,-388.5 174.62,-382.5 174.62,-382.5 174.62,-370.5 174.62,-370.5 174.62,-364.5 180.62,-358.5 186.62,-358.5 186.62,-358.5 269.38,-358.5 269.38,-358.5 275.38,-358.5 281.38,-364.5 281.38,-370.5 281.38,-370.5 281.38,-382.5 281.38,-382.5 281.38,-388.5 275.38,-394.5 269.38,-394.5"/>
<text xml:space="preserve" text-anchor="middle" x="228" y="-379" font-family="Arial" font-size="10.00">Local MQTT Broker</text>
<text xml:space="preserve" text-anchor="middle" x="228" y="-367" font-family="Arial" font-size="10.00">Container: mosquitto</text>
</g>
<!-- sensors&#45;&gt;mosquitto -->
<g id="edge1" class="edge">
<title>sensors&#45;&gt;mosquitto</title>
<path fill="none" stroke="#555555" d="M109.71,-451.21C111.86,-438.04 116.48,-422.89 126.25,-412.5 136.29,-401.82 149.74,-394.4 163.57,-389.24"/>
<polygon fill="#555555" stroke="#555555" points="164.34,-392.67 172.73,-386.2 162.13,-386.03 164.34,-392.67"/>
<text xml:space="preserve" text-anchor="middle" x="179.12" y="-424.95" font-family="Arial" font-size="9.00">Telemetry</text>
<text xml:space="preserve" text-anchor="middle" x="179.12" y="-414.45" font-family="Arial" font-size="9.00">MQTT topic hive/telemetry</text>
</g>
<!-- audio_ml -->
<g id="node4" class="node">
<title>audio_ml</title>
<path fill="white" stroke="#555555" d="M341.62,-84C341.62,-84 122.38,-84 122.38,-84 116.38,-84 110.38,-78 110.38,-72 110.38,-72 110.38,-28 110.38,-28 110.38,-22 116.38,-16 122.38,-16 122.38,-16 341.62,-16 341.62,-16 347.62,-16 353.62,-22 353.62,-28 353.62,-28 353.62,-72 353.62,-72 353.62,-78 347.62,-84 341.62,-84"/>
<text xml:space="preserve" text-anchor="middle" x="232" y="-70.5" font-family="Arial" font-size="10.00">Audio ML Service</text>
<text xml:space="preserve" text-anchor="middle" x="232" y="-58.5" font-family="Arial" font-size="10.00">Container: smart&#45;hive&#45;audio</text>
<text xml:space="preserve" text-anchor="middle" x="232" y="-46.5" font-family="Arial" font-size="10.00">• 1 s windows, MFCC (312)</text>
<text xml:space="preserve" text-anchor="middle" x="232" y="-34.5" font-family="Arial" font-size="10.00">• RandomForest model</text>
<text xml:space="preserve" text-anchor="middle" x="232" y="-22.5" font-family="Arial" font-size="10.00">• Output: {Normal|Swarming|Queenless}+confidence</text>
</g>
<!-- audio_ml&#45;&gt;mosquitto -->
<g id="edge2" class="edge">
<title>audio_ml&#45;&gt;mosquitto</title>
<path fill="none" stroke="#555555" d="M236.5,-84.42C237.12,-90.27 237.67,-96.3 238,-102 238.55,-111.32 239.84,-113.85 238,-123 228.71,-169.29 235.62,-193.84 197,-221 182.85,-230.95 53.41,-216.46 41.5,-229 -6.91,-279.97 92.21,-328.12 163.6,-354.53"/>
<polygon fill="#555555" stroke="#555555" points="162.34,-357.8 172.93,-357.91 164.72,-351.22 162.34,-357.8"/>
<text xml:space="preserve" text-anchor="middle" x="87.25" y="-241.45" font-family="Arial" font-size="9.00">Predictions</text>
<text xml:space="preserve" text-anchor="middle" x="87.25" y="-230.95" font-family="Arial" font-size="9.00">MQTT topic hive/audio</text>
</g>
<!-- dashboard -->
<g id="node5" class="node">
<title>dashboard</title>
<path fill="white" stroke="#555555" d="M175.88,-209C175.88,-209 42.12,-209 42.12,-209 36.12,-209 30.12,-203 30.12,-197 30.12,-197 30.12,-153 30.12,-153 30.12,-147 36.12,-141 42.12,-141 42.12,-141 175.88,-141 175.88,-141 181.88,-141 187.88,-147 187.88,-153 187.88,-153 187.88,-197 187.88,-197 187.88,-203 181.88,-209 175.88,-209"/>
<text xml:space="preserve" text-anchor="middle" x="109" y="-195.5" font-family="Arial" font-size="10.00">Dashboard Service</text>
<text xml:space="preserve" text-anchor="middle" x="109" y="-183.5" font-family="Arial" font-size="10.00">Container: smart&#45;hive&#45;dashboard</text>
<text xml:space="preserve" text-anchor="middle" x="109" y="-171.5" font-family="Arial" font-size="10.00">• Live video</text>
<text xml:space="preserve" text-anchor="middle" x="109" y="-159.5" font-family="Arial" font-size="10.00">• Telemetry widgets</text>
<text xml:space="preserve" text-anchor="middle" x="109" y="-147.5" font-family="Arial" font-size="10.00">• Queen status alerts</text>
</g>
<!-- dashboard&#45;&gt;audio_ml -->
<g id="edge9" class="edge">
<title>dashboard&#45;&gt;audio_ml</title>
<path fill="none" stroke="#555555" stroke-dasharray="5,2" d="M121.63,-140.73C127.74,-127.61 136.05,-113.07 146.5,-102 150,-98.29 153.82,-94.77 157.86,-91.42"/>
<polygon fill="#555555" stroke="#555555" points="159.98,-94.2 165.77,-85.33 155.71,-88.66 159.98,-94.2"/>
<text xml:space="preserve" text-anchor="middle" x="192.25" y="-114.45" font-family="Arial" font-size="9.00">Recording trigger</text>
<text xml:space="preserve" text-anchor="middle" x="192.25" y="-103.95" font-family="Arial" font-size="9.00">(REST / MQTT control)</text>
</g>
<!-- browser -->
<g id="node10" class="node">
<title>browser</title>
<path fill="white" stroke="#555555" d="M80,-68C80,-68 28,-68 28,-68 22,-68 16,-62 16,-56 16,-56 16,-44 16,-44 16,-38 22,-32 28,-32 28,-32 80,-32 80,-32 86,-32 92,-38 92,-44 92,-44 92,-56 92,-56 92,-62 86,-68 80,-68"/>
<text xml:space="preserve" text-anchor="middle" x="54" y="-46.5" font-family="Arial" font-size="10.00">User Browser</text>
</g>
<!-- dashboard&#45;&gt;browser -->
<g id="edge10" class="edge">
<title>dashboard&#45;&gt;browser</title>
<path fill="none" stroke="#555555" d="M48.93,-140.81C43.48,-135.55 38.72,-129.62 35.25,-123 27.99,-109.14 31.79,-92.28 37.82,-78.36"/>
<polygon fill="#555555" stroke="#555555" points="40.79,-80.26 42.05,-69.74 34.5,-77.18 40.79,-80.26"/>
<text xml:space="preserve" text-anchor="middle" x="79.12" y="-109.2" font-family="Arial" font-size="9.00">HTTP / WebSocket UI</text>
</g>
<!-- flask -->
<g id="node6" class="node">
<title>flask</title>
<path fill="white" stroke="#555555" d="M342,-312C342,-312 218,-312 218,-312 212,-312 206,-306 206,-300 206,-300 206,-280 206,-280 206,-274 212,-268 218,-268 218,-268 342,-268 342,-268 348,-268 354,-274 354,-280 354,-280 354,-300 354,-300 354,-306 348,-312 342,-312"/>
<text xml:space="preserve" text-anchor="middle" x="280" y="-298.5" font-family="Arial" font-size="10.00">Flask + SocketIO API</text>
<text xml:space="preserve" text-anchor="middle" x="280" y="-286.5" font-family="Arial" font-size="10.00">• REST/WebSocket endpoints</text>
<text xml:space="preserve" text-anchor="middle" x="280" y="-274.5" font-family="Arial" font-size="10.00">• Aggregates MQTT topics</text>
</g>
<!-- flask&#45;&gt;aws_ddb -->
<g id="edge12" class="edge">
<title>flask&#45;&gt;aws_ddb</title>
<path fill="none" stroke="#555555" stroke-dasharray="5,2" d="M328.27,-267.6C338.41,-262.36 348.81,-256.4 358,-250 378.3,-235.87 398.61,-216.7 413.55,-201.42"/>
<polygon fill="#555555" stroke="#555555" points="415.82,-204.11 420.22,-194.48 410.77,-199.27 415.82,-204.11"/>
<text xml:space="preserve" text-anchor="middle" x="434.27" y="-241.45" font-family="Arial" font-size="9.00">optional telemetry writes</text>
<text xml:space="preserve" text-anchor="middle" x="434.27" y="-230.95" font-family="Arial" font-size="9.00">(DynamoDB 7&#45;day store)</text>
</g>
<!-- flask&#45;&gt;dashboard -->
<g id="edge8" class="edge">
<title>flask&#45;&gt;dashboard</title>
<path fill="none" stroke="#555555" d="M205.76,-274.25C188.8,-268.56 171.63,-260.73 157.5,-250 146.6,-241.73 137.42,-230.25 130.07,-218.81"/>
<polygon fill="#555555" stroke="#555555" points="133.27,-217.33 125.12,-210.57 127.27,-220.94 133.27,-217.33"/>
<text xml:space="preserve" text-anchor="middle" x="183.75" y="-241.45" font-family="Arial" font-size="9.00">UI updates</text>
<text xml:space="preserve" text-anchor="middle" x="183.75" y="-230.95" font-family="Arial" font-size="9.00">(WebSocket)</text>
</g>
<!-- mosquitto&#45;&gt;aws_iot -->
<g id="edge11" class="edge">
<title>mosquitto&#45;&gt;aws_iot</title>
<path fill="none" stroke="#555555" stroke-dasharray="5,2" d="M281.68,-359.94C298.4,-354.48 316.71,-347.85 333,-340.5 406.07,-307.54 425.97,-299.52 489,-250 507.26,-235.66 525.34,-216.72 538.68,-201.6"/>
<polygon fill="#555555" stroke="#555555" points="541.07,-204.19 544.97,-194.34 535.78,-199.61 541.07,-204.19"/>
<text xml:space="preserve" text-anchor="middle" x="508.35" y="-286.7" font-family="Arial" font-size="9.00">optional MQTT bridge</text>
</g>
<!-- mosquitto&#45;&gt;audio_ml -->
<g id="edge3" class="edge">
<title>mosquitto&#45;&gt;audio_ml</title>
<path fill="none" stroke="#555555" d="M216.9,-358.24C209.65,-345.91 200.84,-328.61 197,-312 192.6,-292.95 190.98,-286.61 197,-268 200.04,-258.61 205.32,-258.69 210,-250 237.65,-198.65 236.57,-180.96 243,-123 243.99,-114.07 243.58,-104.56 242.48,-95.47"/>
<polygon fill="#555555" stroke="#555555" points="245.97,-95.11 240.99,-85.76 239.05,-96.17 245.97,-95.11"/>
<text xml:space="preserve" text-anchor="middle" x="281.15" y="-241.45" font-family="Arial" font-size="9.00">Record/control</text>
<text xml:space="preserve" text-anchor="middle" x="281.15" y="-230.95" font-family="Arial" font-size="9.00">MQTT topic hive/audio/control</text>
</g>
<!-- mosquitto&#45;&gt;flask -->
<g id="edge7" class="edge">
<title>mosquitto&#45;&gt;flask</title>
<path fill="none" stroke="#555555" d="M238.52,-358.4C244.99,-347.9 253.46,-334.14 261.05,-321.79"/>
<polygon fill="#555555" stroke="#555555" points="263.85,-323.92 266.11,-313.56 257.89,-320.25 263.85,-323.92"/>
<text xml:space="preserve" text-anchor="middle" x="292.31" y="-331.95" font-family="Arial" font-size="9.00">Pub/Sub all topics</text>
</g>
<!-- camera -->
<g id="node8" class="node">
<title>camera</title>
<path fill="white" stroke="#555555" d="M157.75,-600.5C157.75,-600.5 92.25,-600.5 92.25,-600.5 86.25,-600.5 80.25,-594.5 80.25,-588.5 80.25,-588.5 80.25,-576.5 80.25,-576.5 80.25,-570.5 86.25,-564.5 92.25,-564.5 92.25,-564.5 157.75,-564.5 157.75,-564.5 163.75,-564.5 169.75,-570.5 169.75,-576.5 169.75,-576.5 169.75,-588.5 169.75,-588.5 169.75,-594.5 163.75,-600.5 157.75,-600.5"/>
<text xml:space="preserve" text-anchor="middle" x="125" y="-585" font-family="Arial" font-size="10.00">USB Camera</text>
<text xml:space="preserve" text-anchor="middle" x="125" y="-573" font-family="Arial" font-size="10.00">(MJPEG stream)</text>
</g>
<!-- camera&#45;&gt;dashboard -->
<g id="edge4" class="edge">
<title>camera&#45;&gt;dashboard</title>
<path fill="none" stroke="#555555" d="M97.05,-564.13C78.59,-551.02 55.72,-531.24 44,-507.5 5.39,-429.3 32.19,-399.06 27,-312 24.81,-275.17 7.18,-261.31 25,-229 27.3,-224.84 30.07,-220.96 33.19,-217.35"/>
<polygon fill="#555555" stroke="#555555" points="35.44,-220.05 39.99,-210.48 30.47,-215.12 35.44,-220.05"/>
<text xml:space="preserve" text-anchor="middle" x="57.36" y="-378.45" font-family="Arial" font-size="9.00">MJPEG stream</text>
<text xml:space="preserve" text-anchor="middle" x="57.36" y="-367.95" font-family="Arial" font-size="9.00">(no vision AI)</text>
</g>
<!-- vision -->
<g id="node9" class="node">
<title>vision</title>
<path fill="white" stroke="#555555" d="M307.12,-501.5C307.12,-501.5 192.88,-501.5 192.88,-501.5 186.88,-501.5 180.88,-495.5 180.88,-489.5 180.88,-489.5 180.88,-469.5 180.88,-469.5 180.88,-463.5 186.88,-457.5 192.88,-457.5 192.88,-457.5 307.12,-457.5 307.12,-457.5 313.12,-457.5 319.12,-463.5 319.12,-469.5 319.12,-469.5 319.12,-489.5 319.12,-489.5 319.12,-495.5 313.12,-501.5 307.12,-501.5"/>
<text xml:space="preserve" text-anchor="middle" x="250" y="-488" font-family="Arial" font-size="10.00">Vision Service (optional)</text>
<text xml:space="preserve" text-anchor="middle" x="250" y="-476" font-family="Arial" font-size="10.00">Container: smart&#45;hive&#45;vision</text>
<text xml:space="preserve" text-anchor="middle" x="250" y="-464" font-family="Arial" font-size="10.00">• YOLOv8 inference</text>
</g>
<!-- camera&#45;&gt;vision -->
<g id="edge5" class="edge">
<title>camera&#45;&gt;vision</title>
<path fill="none" stroke="#555555" d="M146.49,-564.14C165.26,-548.97 192.87,-526.66 214.86,-508.89"/>
<polygon fill="#555555" stroke="#555555" points="216.83,-511.8 222.41,-502.79 212.43,-506.36 216.83,-511.8"/>
<text xml:space="preserve" text-anchor="middle" x="273.37" y="-537.95" font-family="Arial" font-size="9.00">JPEG frames</text>
<text xml:space="preserve" text-anchor="middle" x="273.37" y="-527.45" font-family="Arial" font-size="9.00">MQTT topic hive/telemetry/camera/frame</text>
</g>
<!-- vision&#45;&gt;mosquitto -->
<g id="edge6" class="edge">
<title>vision&#45;&gt;mosquitto</title>
<path fill="none" stroke="#555555" d="M245.33,-457.08C242.09,-442.17 237.72,-422.13 234.18,-405.89"/>
<polygon fill="#555555" stroke="#555555" points="237.65,-405.37 232.1,-396.34 230.81,-406.86 237.65,-405.37"/>
<text xml:space="preserve" text-anchor="middle" x="285.78" y="-424.95" font-family="Arial" font-size="9.00">Detections</text>
<text xml:space="preserve" text-anchor="middle" x="285.78" y="-414.45" font-family="Arial" font-size="9.00">MQTT topic hive/vision</text>
</g>
</g>
</svg>
