<?xml version="1.0" encoding="UTF-8" standalone="no"?>
<!DOCTYPE svg PUBLIC "-//W3C//DTD SVG 1.1//EN"
 "http://www.w3.org/Graphics/SVG/1.1/DTD/svg11.dtd">
<!-- Generated by graphviz version 14.0.2 (20251019.1705)
 -->
<!-- Title: standalone_vision Pages: 1 -->
<svg width="198pt" height="277pt"
 viewBox="0.00 0.00 198.00 277.00" xmlns="http://www.w3.org/2000/svg" xmlns:xlink="http://www.w3.org/1999/xlink">
<g id="graph0" class="graph" transform="scale(1 1) rotate(0) translate(14.4 262.4)">
<title>standalone_vision</title>
<polygon fill="white" stroke="none" points="-14.4,14.4 -14.4,-262.4 183.4,-262.4 183.4,14.4 -14.4,14.4"/>
<!-- pi -->
<g id="node1" class="node">
<title>pi</title>
<path fill="white" stroke="#555555" d="M156.25,-248C156.25,-248 12.75,-248 12.75,-248 6.75,-248 0.75,-242 0.75,-236 0.75,-236 0.75,-84 0.75,-84 0.75,-78 6.75,-72 12.75,-72 12.75,-72 156.25,-72 156.25,-72 162.25,-72 168.25,-78 168.25,-84 168.25,-84 168.25,-236 168.25,-236 168.25,-242 162.25,-248 156.25,-248"/>
<text xml:space="preserve" text-anchor="middle" x="84.5" y="-234.5" font-family="Arial" font-size="10.00">Raspberry Pi 4B+</text>
<text xml:space="preserve" text-anchor="middle" x="84.5" y="-222.5" font-family="Arial" font-size="10.00">(Standalone AI Vision Model)</text>
<text xml:space="preserve" text-anchor="middle" x="84.5" y="-198.5" font-family="Arial" font-size="10.00">Components</text>
<text xml:space="preserve" text-anchor="middle" x="84.5" y="-186.5" font-family="Arial" font-size="10.00">• Pi Camera Module v3 (NoIR)</text>
<text xml:space="preserve" text-anchor="middle" x="84.5" y="-174.5" font-family="Arial" font-size="10.00">• 4 GB RAM, 32&#45;GB SD card</text>
<text xml:space="preserve" text-anchor="middle" x="84.5" y="-162.5" font-family="Arial" font-size="10.00">• Python + OpenCV + PyTorch</text>
<text xml:space="preserve" text-anchor="middle" x="84.5" y="-138.5" font-family="Arial" font-size="10.00">Processing Flow</text>
<text xml:space="preserve" text-anchor="middle" x="84.5" y="-126.5" font-family="Arial" font-size="10.00">1. Capture image frame (~10 FPS)</text>
<text xml:space="preserve" text-anchor="middle" x="84.5" y="-114.5" font-family="Arial" font-size="10.00">2. Run ML Vision model (YOLOv8)</text>
<text xml:space="preserve" text-anchor="middle" x="84.5" y="-102.5" font-family="Arial" font-size="10.00">3. Detect queen&#45;bee bounding box</text>
<text xml:space="preserve" text-anchor="middle" x="84.5" y="-90.5" font-family="Arial" font-size="10.00">4. Annotate image in memory</text>
<text xml:space="preserve" text-anchor="middle" x="84.5" y="-78.5" font-family="Arial" font-size="10.00">5. Display result via dashboard</text>
</g>
<!-- display -->
<g id="node2" class="node">
<title>display</title>
<path fill="white" stroke="#555555" d="M157,-36C157,-36 12,-36 12,-36 6,-36 0,-30 0,-24 0,-24 0,-12 0,-12 0,-6 6,0 12,0 12,0 157,0 157,0 163,0 169,-6 169,-12 169,-12 169,-24 169,-24 169,-30 163,-36 157,-36"/>
<text xml:space="preserve" text-anchor="middle" x="84.5" y="-20.5" font-family="Arial" font-size="10.00">HDMI / Local Display</text>
<text xml:space="preserve" text-anchor="middle" x="84.5" y="-8.5" font-family="Arial" font-size="10.00">(&quot;Queen Present&quot; or &quot;Not Present&quot;)</text>
</g>
<!-- pi&#45;&gt;display -->
<g id="edge1" class="edge">
<title>pi&#45;&gt;display</title>
<path fill="none" stroke="#555555" d="M84.5,-71.53C84.5,-63.13 84.5,-55.1 84.5,-47.95"/>
<polygon fill="#555555" stroke="#555555" points="88,-48.01 84.5,-38.01 81,-48.01 88,-48.01"/>
</g>
</g>
</svg>
